<svg width="96" height="96" viewBox="0 0 96 96" fill="none" xmlns="http://www.w3.org/2000/svg">
<path opacity="0.187779" fill-rule="evenodd" clip-rule="evenodd" d="M48 96C74.5097 96 96 74.5097 96 48C96 21.4903 74.5097 0 48 0C21.4903 0 0 21.4903 0 48C0 74.5097 21.4903 96 48 96Z" fill="white"/>
<path fill-rule="evenodd" clip-rule="evenodd" d="M57.805 47.6046L43.5746 38.0593C43.4555 37.9794 43.3094 37.9803 43.1911 38.0617C43.0727 38.1432 42.9999 38.2929 43 38.4548V57.5452C42.9999 57.7071 43.0727 57.8568 43.1911 57.9383C43.3094 58.0197 43.4555 58.0206 43.5746 57.9407L57.805 48.3954C57.9255 48.3147 58 48.1637 58 48C58 47.8363 57.9255 47.6853 57.805 47.6046Z" fill="#50E3C2"/>
</svg>
